<mxfile host="Electron" modified="2023-06-27T22:02:58.662Z" agent="Mozilla/5.0 (Windows NT 10.0; Win64; x64) AppleWebKit/537.36 (KHTML, like Gecko) draw.io/21.2.1 Chrome/112.0.5615.87 Electron/24.1.2 Safari/537.36" etag="snuTnlz7mIDVYWmCLbio" version="21.2.1" type="device" pages="2">
  <diagram id="C5RBs43oDa-KdzZeNtuy" name="SidePressureCalculator">
    <mxGraphModel dx="794" dy="511" grid="1" gridSize="10" guides="1" tooltips="1" connect="1" arrows="1" fold="1" page="1" pageScale="1" pageWidth="827" pageHeight="1169" math="0" shadow="0">
      <root>
        <mxCell id="WIyWlLk6GJQsqaUBKTNV-0" />
        <mxCell id="WIyWlLk6GJQsqaUBKTNV-1" parent="WIyWlLk6GJQsqaUBKTNV-0" />
        <mxCell id="3PD8EsSAfqM94zHy5beu-1" value="CalculateAngles(int direction)" style="swimlane;startSize=23;rounded=1;align=left;swimlaneLine=1;verticalAlign=middle;horizontal=1;labelPosition=center;verticalLabelPosition=middle;labelBorderColor=none;spacingLeft=8;" vertex="1" parent="WIyWlLk6GJQsqaUBKTNV-1">
          <mxGeometry x="320" y="120" width="240" height="320" as="geometry" />
        </mxCell>
        <mxCell id="9zGBP2KqgMAAKQmjWY-i-0" value="" style="ellipse;whiteSpace=wrap;html=1;aspect=fixed;fillColor=#000000;strokeColor=#000000;" vertex="1" parent="3PD8EsSAfqM94zHy5beu-1">
          <mxGeometry x="110" y="40" width="20" height="20" as="geometry" />
        </mxCell>
        <mxCell id="9zGBP2KqgMAAKQmjWY-i-1" value="" style="rounded=1;whiteSpace=wrap;html=1;strokeColor=#000000;fillColor=default;" vertex="1" parent="3PD8EsSAfqM94zHy5beu-1">
          <mxGeometry x="60" y="80" width="120" height="40" as="geometry" />
        </mxCell>
        <mxCell id="9c97Y-6t8RP4Wa17bOTk-2" value="OnAwake()" style="swimlane;startSize=23;rounded=1;align=left;swimlaneLine=1;verticalAlign=middle;horizontal=1;labelPosition=center;verticalLabelPosition=middle;labelBorderColor=none;spacingLeft=8;" vertex="1" parent="WIyWlLk6GJQsqaUBKTNV-1">
          <mxGeometry x="80" y="120" width="200" height="190" as="geometry" />
        </mxCell>
        <mxCell id="9c97Y-6t8RP4Wa17bOTk-7" style="edgeStyle=orthogonalEdgeStyle;rounded=0;orthogonalLoop=1;jettySize=auto;html=1;exitX=0.5;exitY=1;exitDx=0;exitDy=0;entryX=0.5;entryY=0;entryDx=0;entryDy=0;" edge="1" parent="9c97Y-6t8RP4Wa17bOTk-2" source="9c97Y-6t8RP4Wa17bOTk-3" target="9c97Y-6t8RP4Wa17bOTk-4">
          <mxGeometry relative="1" as="geometry" />
        </mxCell>
        <mxCell id="9c97Y-6t8RP4Wa17bOTk-3" value="" style="ellipse;whiteSpace=wrap;html=1;aspect=fixed;fillColor=#000000;strokeColor=#000000;" vertex="1" parent="9c97Y-6t8RP4Wa17bOTk-2">
          <mxGeometry x="90" y="40" width="20" height="20" as="geometry" />
        </mxCell>
        <mxCell id="9c97Y-6t8RP4Wa17bOTk-8" style="edgeStyle=orthogonalEdgeStyle;rounded=0;orthogonalLoop=1;jettySize=auto;html=1;exitX=0.5;exitY=1;exitDx=0;exitDy=0;entryX=0.5;entryY=0;entryDx=0;entryDy=0;" edge="1" parent="9c97Y-6t8RP4Wa17bOTk-2" source="9c97Y-6t8RP4Wa17bOTk-4" target="9c97Y-6t8RP4Wa17bOTk-5">
          <mxGeometry relative="1" as="geometry" />
        </mxCell>
        <mxCell id="9c97Y-6t8RP4Wa17bOTk-4" value="Get Configuration" style="rounded=1;whiteSpace=wrap;html=1;strokeColor=#000000;fillColor=default;" vertex="1" parent="9c97Y-6t8RP4Wa17bOTk-2">
          <mxGeometry x="40" y="80" width="120" height="40" as="geometry" />
        </mxCell>
        <mxCell id="9c97Y-6t8RP4Wa17bOTk-5" value="" style="ellipse;whiteSpace=wrap;html=1;aspect=fixed;fillColor=#FFFFFF;strokeColor=#000000;" vertex="1" parent="9c97Y-6t8RP4Wa17bOTk-2">
          <mxGeometry x="90" y="150" width="20" height="20" as="geometry" />
        </mxCell>
        <mxCell id="9c97Y-6t8RP4Wa17bOTk-6" value="" style="ellipse;whiteSpace=wrap;html=1;aspect=fixed;fillColor=#000000;strokeColor=#000000;strokeWidth=1;" vertex="1" parent="9c97Y-6t8RP4Wa17bOTk-2">
          <mxGeometry x="95" y="155" width="10" height="10" as="geometry" />
        </mxCell>
      </root>
    </mxGraphModel>
  </diagram>
  <diagram id="ajH7hcun8zZhsxP3wsYC" name="Brain">
    <mxGraphModel dx="3270" dy="601" grid="1" gridSize="10" guides="1" tooltips="1" connect="1" arrows="1" fold="1" page="1" pageScale="1" pageWidth="2336" pageHeight="1654" math="0" shadow="0">
      <root>
        <mxCell id="0" />
        <mxCell id="1" parent="0" />
        <mxCell id="1mb4ksOBA-sOIOvfXFad-1" value="OnEnable()" style="swimlane;startSize=23;rounded=1;align=left;swimlaneLine=1;verticalAlign=middle;horizontal=1;labelPosition=center;verticalLabelPosition=middle;labelBorderColor=none;spacingLeft=8;" vertex="1" parent="1">
          <mxGeometry x="160" y="80" width="220" height="240" as="geometry" />
        </mxCell>
        <mxCell id="1mb4ksOBA-sOIOvfXFad-7" style="edgeStyle=orthogonalEdgeStyle;rounded=0;orthogonalLoop=1;jettySize=auto;html=1;exitX=0.5;exitY=1;exitDx=0;exitDy=0;entryX=0.5;entryY=0;entryDx=0;entryDy=0;" edge="1" parent="1mb4ksOBA-sOIOvfXFad-1" source="1mb4ksOBA-sOIOvfXFad-2" target="1mb4ksOBA-sOIOvfXFad-5">
          <mxGeometry relative="1" as="geometry" />
        </mxCell>
        <mxCell id="1mb4ksOBA-sOIOvfXFad-2" value="" style="ellipse;whiteSpace=wrap;html=1;aspect=fixed;fillColor=#000000;strokeColor=#000000;" vertex="1" parent="1mb4ksOBA-sOIOvfXFad-1">
          <mxGeometry x="100" y="40" width="20" height="20" as="geometry" />
        </mxCell>
        <mxCell id="1mb4ksOBA-sOIOvfXFad-3" value="" style="ellipse;whiteSpace=wrap;html=1;aspect=fixed;fillColor=#FFFFFF;strokeColor=#000000;" vertex="1" parent="1mb4ksOBA-sOIOvfXFad-1">
          <mxGeometry x="100" y="210" width="20" height="20" as="geometry" />
        </mxCell>
        <mxCell id="1mb4ksOBA-sOIOvfXFad-4" value="" style="ellipse;whiteSpace=wrap;html=1;aspect=fixed;fillColor=#000000;strokeColor=#000000;strokeWidth=1;" vertex="1" parent="1mb4ksOBA-sOIOvfXFad-1">
          <mxGeometry x="105" y="215" width="10" height="10" as="geometry" />
        </mxCell>
        <mxCell id="1mb4ksOBA-sOIOvfXFad-6" style="edgeStyle=orthogonalEdgeStyle;rounded=0;orthogonalLoop=1;jettySize=auto;html=1;exitX=0.5;exitY=1;exitDx=0;exitDy=0;entryX=0.5;entryY=0;entryDx=0;entryDy=0;" edge="1" parent="1mb4ksOBA-sOIOvfXFad-1" source="1mb4ksOBA-sOIOvfXFad-5" target="1mb4ksOBA-sOIOvfXFad-3">
          <mxGeometry relative="1" as="geometry" />
        </mxCell>
        <mxCell id="1mb4ksOBA-sOIOvfXFad-5" value="Attach Brain to:&lt;br&gt;Speedometer, Raycaster, Navigator" style="rounded=1;whiteSpace=wrap;html=1;strokeColor=#000000;fillColor=default;" vertex="1" parent="1mb4ksOBA-sOIOvfXFad-1">
          <mxGeometry x="30" y="100" width="160" height="60" as="geometry" />
        </mxCell>
        <mxCell id="1mb4ksOBA-sOIOvfXFad-8" value="OnDisable()" style="swimlane;startSize=23;rounded=1;align=left;swimlaneLine=1;verticalAlign=middle;horizontal=1;labelPosition=center;verticalLabelPosition=middle;labelBorderColor=none;spacingLeft=8;" vertex="1" parent="1">
          <mxGeometry x="400" y="80" width="220" height="240" as="geometry" />
        </mxCell>
        <mxCell id="1mb4ksOBA-sOIOvfXFad-9" style="edgeStyle=orthogonalEdgeStyle;rounded=0;orthogonalLoop=1;jettySize=auto;html=1;exitX=0.5;exitY=1;exitDx=0;exitDy=0;entryX=0.5;entryY=0;entryDx=0;entryDy=0;" edge="1" parent="1mb4ksOBA-sOIOvfXFad-8" source="1mb4ksOBA-sOIOvfXFad-10" target="1mb4ksOBA-sOIOvfXFad-14">
          <mxGeometry relative="1" as="geometry" />
        </mxCell>
        <mxCell id="1mb4ksOBA-sOIOvfXFad-10" value="" style="ellipse;whiteSpace=wrap;html=1;aspect=fixed;fillColor=#000000;strokeColor=#000000;" vertex="1" parent="1mb4ksOBA-sOIOvfXFad-8">
          <mxGeometry x="100" y="40" width="20" height="20" as="geometry" />
        </mxCell>
        <mxCell id="1mb4ksOBA-sOIOvfXFad-11" value="" style="ellipse;whiteSpace=wrap;html=1;aspect=fixed;fillColor=#FFFFFF;strokeColor=#000000;" vertex="1" parent="1mb4ksOBA-sOIOvfXFad-8">
          <mxGeometry x="100" y="210" width="20" height="20" as="geometry" />
        </mxCell>
        <mxCell id="1mb4ksOBA-sOIOvfXFad-12" value="" style="ellipse;whiteSpace=wrap;html=1;aspect=fixed;fillColor=#000000;strokeColor=#000000;strokeWidth=1;" vertex="1" parent="1mb4ksOBA-sOIOvfXFad-8">
          <mxGeometry x="105" y="215" width="10" height="10" as="geometry" />
        </mxCell>
        <mxCell id="1mb4ksOBA-sOIOvfXFad-13" style="edgeStyle=orthogonalEdgeStyle;rounded=0;orthogonalLoop=1;jettySize=auto;html=1;exitX=0.5;exitY=1;exitDx=0;exitDy=0;entryX=0.5;entryY=0;entryDx=0;entryDy=0;" edge="1" parent="1mb4ksOBA-sOIOvfXFad-8" source="1mb4ksOBA-sOIOvfXFad-14" target="1mb4ksOBA-sOIOvfXFad-11">
          <mxGeometry relative="1" as="geometry" />
        </mxCell>
        <mxCell id="1mb4ksOBA-sOIOvfXFad-14" value="Detach Brain to:&lt;br&gt;Speedometer, Raycaster, Navigator" style="rounded=1;whiteSpace=wrap;html=1;strokeColor=#000000;fillColor=default;" vertex="1" parent="1mb4ksOBA-sOIOvfXFad-8">
          <mxGeometry x="30" y="100" width="160" height="60" as="geometry" />
        </mxCell>
        <mxCell id="1mb4ksOBA-sOIOvfXFad-15" value="Update()" style="swimlane;startSize=23;rounded=1;align=left;swimlaneLine=1;verticalAlign=middle;horizontal=1;labelPosition=center;verticalLabelPosition=middle;labelBorderColor=none;spacingLeft=8;" vertex="1" parent="1">
          <mxGeometry x="640" y="80" width="240" height="240" as="geometry" />
        </mxCell>
        <mxCell id="1mb4ksOBA-sOIOvfXFad-20" style="edgeStyle=orthogonalEdgeStyle;rounded=0;orthogonalLoop=1;jettySize=auto;html=1;exitX=0.5;exitY=1;exitDx=0;exitDy=0;entryX=0.5;entryY=0;entryDx=0;entryDy=0;" edge="1" parent="1mb4ksOBA-sOIOvfXFad-15" source="1mb4ksOBA-sOIOvfXFad-16" target="1mb4ksOBA-sOIOvfXFad-19">
          <mxGeometry relative="1" as="geometry" />
        </mxCell>
        <mxCell id="1mb4ksOBA-sOIOvfXFad-16" value="" style="ellipse;whiteSpace=wrap;html=1;aspect=fixed;fillColor=#000000;strokeColor=#000000;" vertex="1" parent="1mb4ksOBA-sOIOvfXFad-15">
          <mxGeometry x="110" y="40" width="20" height="20" as="geometry" />
        </mxCell>
        <mxCell id="1mb4ksOBA-sOIOvfXFad-17" value="" style="ellipse;whiteSpace=wrap;html=1;aspect=fixed;fillColor=#FFFFFF;strokeColor=#000000;" vertex="1" parent="1mb4ksOBA-sOIOvfXFad-15">
          <mxGeometry x="110" y="210" width="20" height="20" as="geometry" />
        </mxCell>
        <mxCell id="1mb4ksOBA-sOIOvfXFad-18" value="" style="ellipse;whiteSpace=wrap;html=1;aspect=fixed;fillColor=#000000;strokeColor=#000000;strokeWidth=1;" vertex="1" parent="1mb4ksOBA-sOIOvfXFad-15">
          <mxGeometry x="115" y="215" width="10" height="10" as="geometry" />
        </mxCell>
        <mxCell id="1mb4ksOBA-sOIOvfXFad-21" style="edgeStyle=orthogonalEdgeStyle;rounded=0;orthogonalLoop=1;jettySize=auto;html=1;exitX=0.5;exitY=1;exitDx=0;exitDy=0;entryX=0.5;entryY=0;entryDx=0;entryDy=0;" edge="1" parent="1mb4ksOBA-sOIOvfXFad-15" source="1mb4ksOBA-sOIOvfXFad-19" target="1mb4ksOBA-sOIOvfXFad-17">
          <mxGeometry relative="1" as="geometry" />
        </mxCell>
        <mxCell id="1mb4ksOBA-sOIOvfXFad-19" value="NotifyObserver(CalculateDriveControl())" style="rounded=1;whiteSpace=wrap;html=1;strokeColor=#000000;fillColor=default;" vertex="1" parent="1mb4ksOBA-sOIOvfXFad-15">
          <mxGeometry x="10" y="100" width="220" height="40" as="geometry" />
        </mxCell>
        <mxCell id="1mb4ksOBA-sOIOvfXFad-22" value="CCDDUpdate()" style="swimlane;startSize=23;rounded=1;align=left;swimlaneLine=1;verticalAlign=middle;horizontal=1;labelPosition=center;verticalLabelPosition=middle;labelBorderColor=none;spacingLeft=8;" vertex="1" parent="1">
          <mxGeometry x="895" y="80" width="240" height="300" as="geometry" />
        </mxCell>
        <mxCell id="1mb4ksOBA-sOIOvfXFad-33" style="edgeStyle=orthogonalEdgeStyle;rounded=0;orthogonalLoop=1;jettySize=auto;html=1;exitX=0.5;exitY=1;exitDx=0;exitDy=0;entryX=0.5;entryY=0;entryDx=0;entryDy=0;" edge="1" parent="1mb4ksOBA-sOIOvfXFad-22" source="1mb4ksOBA-sOIOvfXFad-23" target="1mb4ksOBA-sOIOvfXFad-32">
          <mxGeometry relative="1" as="geometry" />
        </mxCell>
        <mxCell id="1mb4ksOBA-sOIOvfXFad-23" value="" style="ellipse;whiteSpace=wrap;html=1;aspect=fixed;fillColor=#000000;strokeColor=#000000;" vertex="1" parent="1mb4ksOBA-sOIOvfXFad-22">
          <mxGeometry x="130" y="40" width="20" height="20" as="geometry" />
        </mxCell>
        <mxCell id="1mb4ksOBA-sOIOvfXFad-31" style="edgeStyle=orthogonalEdgeStyle;rounded=0;orthogonalLoop=1;jettySize=auto;html=1;exitX=0.5;exitY=1;exitDx=0;exitDy=0;entryX=0.5;entryY=0;entryDx=0;entryDy=0;" edge="1" parent="1mb4ksOBA-sOIOvfXFad-22" source="1mb4ksOBA-sOIOvfXFad-26" target="1mb4ksOBA-sOIOvfXFad-27">
          <mxGeometry relative="1" as="geometry" />
        </mxCell>
        <mxCell id="1mb4ksOBA-sOIOvfXFad-26" value="Cache Eventvariable to Instancevariable" style="rounded=1;whiteSpace=wrap;html=1;strokeColor=#000000;fillColor=default;" vertex="1" parent="1mb4ksOBA-sOIOvfXFad-22">
          <mxGeometry x="10" y="180" width="140" height="40" as="geometry" />
        </mxCell>
        <mxCell id="1mb4ksOBA-sOIOvfXFad-27" value="" style="ellipse;whiteSpace=wrap;html=1;aspect=fixed;fillColor=#FFFFFF;strokeColor=#000000;" vertex="1" parent="1mb4ksOBA-sOIOvfXFad-22">
          <mxGeometry x="130" y="260" width="20" height="20" as="geometry" />
        </mxCell>
        <mxCell id="1mb4ksOBA-sOIOvfXFad-28" value="" style="ellipse;whiteSpace=wrap;html=1;aspect=fixed;fillColor=#000000;strokeColor=#000000;strokeWidth=1;" vertex="1" parent="1mb4ksOBA-sOIOvfXFad-22">
          <mxGeometry x="135" y="265" width="10" height="10" as="geometry" />
        </mxCell>
        <mxCell id="1mb4ksOBA-sOIOvfXFad-34" style="edgeStyle=orthogonalEdgeStyle;rounded=0;orthogonalLoop=1;jettySize=auto;html=1;exitX=0;exitY=0.5;exitDx=0;exitDy=0;entryX=0.5;entryY=0;entryDx=0;entryDy=0;" edge="1" parent="1mb4ksOBA-sOIOvfXFad-22" source="1mb4ksOBA-sOIOvfXFad-32" target="1mb4ksOBA-sOIOvfXFad-26">
          <mxGeometry relative="1" as="geometry" />
        </mxCell>
        <mxCell id="1mb4ksOBA-sOIOvfXFad-36" style="edgeStyle=orthogonalEdgeStyle;rounded=0;orthogonalLoop=1;jettySize=auto;html=1;exitX=1;exitY=0.5;exitDx=0;exitDy=0;entryX=0.5;entryY=0;entryDx=0;entryDy=0;" edge="1" parent="1mb4ksOBA-sOIOvfXFad-22" source="1mb4ksOBA-sOIOvfXFad-32" target="1mb4ksOBA-sOIOvfXFad-27">
          <mxGeometry relative="1" as="geometry">
            <Array as="points">
              <mxPoint x="200" y="130" />
              <mxPoint x="200" y="240" />
              <mxPoint x="140" y="240" />
            </Array>
          </mxGeometry>
        </mxCell>
        <mxCell id="1mb4ksOBA-sOIOvfXFad-32" value="" style="rhombus;whiteSpace=wrap;html=1;" vertex="1" parent="1mb4ksOBA-sOIOvfXFad-22">
          <mxGeometry x="120" y="110" width="40" height="40" as="geometry" />
        </mxCell>
        <mxCell id="1mb4ksOBA-sOIOvfXFad-35" value="Check for Eventtypes:&lt;br style=&quot;border-color: var(--border-color);&quot;&gt;&lt;span style=&quot;&quot;&gt;SpeedChangeEvent,&lt;/span&gt;&lt;br style=&quot;border-color: var(--border-color);&quot;&gt;&lt;span style=&quot;&quot;&gt;PressureChangeEvent,&lt;/span&gt;&lt;br style=&quot;border-color: var(--border-color);&quot;&gt;&lt;span style=&quot;&quot;&gt;NavigationEvent&lt;/span&gt;" style="text;html=1;align=center;verticalAlign=middle;resizable=0;points=[];autosize=1;strokeColor=none;fillColor=none;" vertex="1" parent="1mb4ksOBA-sOIOvfXFad-22">
          <mxGeometry x="-5" y="60" width="150" height="70" as="geometry" />
        </mxCell>
        <mxCell id="1mb4ksOBA-sOIOvfXFad-37" value="CalculateDriveControl()" style="swimlane;startSize=23;rounded=1;align=left;swimlaneLine=1;verticalAlign=middle;horizontal=1;labelPosition=center;verticalLabelPosition=middle;labelBorderColor=none;spacingLeft=8;" vertex="1" parent="1">
          <mxGeometry x="1155" y="80" width="440" height="440" as="geometry" />
        </mxCell>
        <mxCell id="1mb4ksOBA-sOIOvfXFad-57" style="edgeStyle=orthogonalEdgeStyle;rounded=0;orthogonalLoop=1;jettySize=auto;html=1;exitX=0.5;exitY=1;exitDx=0;exitDy=0;entryX=0.5;entryY=0;entryDx=0;entryDy=0;" edge="1" parent="1mb4ksOBA-sOIOvfXFad-37" source="1mb4ksOBA-sOIOvfXFad-38" target="1mb4ksOBA-sOIOvfXFad-43">
          <mxGeometry relative="1" as="geometry" />
        </mxCell>
        <mxCell id="1mb4ksOBA-sOIOvfXFad-38" value="" style="ellipse;whiteSpace=wrap;html=1;aspect=fixed;fillColor=#000000;strokeColor=#000000;" vertex="1" parent="1mb4ksOBA-sOIOvfXFad-37">
          <mxGeometry x="210" y="40" width="20" height="20" as="geometry" />
        </mxCell>
        <mxCell id="1mb4ksOBA-sOIOvfXFad-42" style="edgeStyle=orthogonalEdgeStyle;rounded=0;orthogonalLoop=1;jettySize=auto;html=1;exitX=0;exitY=0.5;exitDx=0;exitDy=0;entryX=0.5;entryY=0;entryDx=0;entryDy=0;" edge="1" parent="1mb4ksOBA-sOIOvfXFad-37" source="1mb4ksOBA-sOIOvfXFad-39" target="1mb4ksOBA-sOIOvfXFad-41">
          <mxGeometry relative="1" as="geometry" />
        </mxCell>
        <mxCell id="1mb4ksOBA-sOIOvfXFad-46" style="edgeStyle=orthogonalEdgeStyle;rounded=0;orthogonalLoop=1;jettySize=auto;html=1;exitX=1;exitY=0.5;exitDx=0;exitDy=0;entryX=0.5;entryY=0;entryDx=0;entryDy=0;" edge="1" parent="1mb4ksOBA-sOIOvfXFad-37" source="1mb4ksOBA-sOIOvfXFad-39" target="1mb4ksOBA-sOIOvfXFad-45">
          <mxGeometry relative="1" as="geometry" />
        </mxCell>
        <mxCell id="1mb4ksOBA-sOIOvfXFad-39" value="" style="rhombus;whiteSpace=wrap;html=1;" vertex="1" parent="1mb4ksOBA-sOIOvfXFad-37">
          <mxGeometry x="200" y="160" width="40" height="40" as="geometry" />
        </mxCell>
        <mxCell id="1mb4ksOBA-sOIOvfXFad-40" value="speedRatio &amp;lt; 1" style="text;html=1;align=center;verticalAlign=middle;resizable=0;points=[];autosize=1;strokeColor=none;fillColor=none;" vertex="1" parent="1mb4ksOBA-sOIOvfXFad-37">
          <mxGeometry x="90" y="140" width="100" height="30" as="geometry" />
        </mxCell>
        <mxCell id="1mb4ksOBA-sOIOvfXFad-48" style="edgeStyle=orthogonalEdgeStyle;rounded=0;orthogonalLoop=1;jettySize=auto;html=1;exitX=0.5;exitY=1;exitDx=0;exitDy=0;entryX=0.5;entryY=0;entryDx=0;entryDy=0;" edge="1" parent="1mb4ksOBA-sOIOvfXFad-37" source="1mb4ksOBA-sOIOvfXFad-41" target="1mb4ksOBA-sOIOvfXFad-47">
          <mxGeometry relative="1" as="geometry" />
        </mxCell>
        <mxCell id="1mb4ksOBA-sOIOvfXFad-41" value="manipulate acceleration with CalcCurve()" style="rounded=1;whiteSpace=wrap;html=1;strokeColor=#000000;fillColor=default;" vertex="1" parent="1mb4ksOBA-sOIOvfXFad-37">
          <mxGeometry x="40" y="210" width="150" height="40" as="geometry" />
        </mxCell>
        <mxCell id="1mb4ksOBA-sOIOvfXFad-56" style="edgeStyle=orthogonalEdgeStyle;rounded=0;orthogonalLoop=1;jettySize=auto;html=1;exitX=0.5;exitY=1;exitDx=0;exitDy=0;entryX=0.5;entryY=0;entryDx=0;entryDy=0;" edge="1" parent="1mb4ksOBA-sOIOvfXFad-37" source="1mb4ksOBA-sOIOvfXFad-43" target="1mb4ksOBA-sOIOvfXFad-39">
          <mxGeometry relative="1" as="geometry" />
        </mxCell>
        <mxCell id="1mb4ksOBA-sOIOvfXFad-43" value="speedRatio = currentSpeed / targetSpeed" style="rounded=1;whiteSpace=wrap;html=1;strokeColor=#000000;fillColor=default;" vertex="1" parent="1mb4ksOBA-sOIOvfXFad-37">
          <mxGeometry x="100" y="75" width="240" height="40" as="geometry" />
        </mxCell>
        <mxCell id="1mb4ksOBA-sOIOvfXFad-44" value="speedRatio &amp;gt; 1" style="text;html=1;align=center;verticalAlign=middle;resizable=0;points=[];autosize=1;strokeColor=none;fillColor=none;" vertex="1" parent="1mb4ksOBA-sOIOvfXFad-37">
          <mxGeometry x="240" y="140" width="100" height="30" as="geometry" />
        </mxCell>
        <mxCell id="1mb4ksOBA-sOIOvfXFad-50" style="edgeStyle=orthogonalEdgeStyle;rounded=0;orthogonalLoop=1;jettySize=auto;html=1;exitX=0.5;exitY=1;exitDx=0;exitDy=0;entryX=0.5;entryY=0;entryDx=0;entryDy=0;" edge="1" parent="1mb4ksOBA-sOIOvfXFad-37" source="1mb4ksOBA-sOIOvfXFad-45" target="1mb4ksOBA-sOIOvfXFad-47">
          <mxGeometry relative="1" as="geometry" />
        </mxCell>
        <mxCell id="1mb4ksOBA-sOIOvfXFad-45" value="maipulate breaking&lt;br&gt;with CalcCurve()" style="rounded=1;whiteSpace=wrap;html=1;strokeColor=#000000;fillColor=default;" vertex="1" parent="1mb4ksOBA-sOIOvfXFad-37">
          <mxGeometry x="250" y="210" width="140" height="40" as="geometry" />
        </mxCell>
        <mxCell id="1mb4ksOBA-sOIOvfXFad-54" style="edgeStyle=orthogonalEdgeStyle;rounded=0;orthogonalLoop=1;jettySize=auto;html=1;exitX=0.5;exitY=1;exitDx=0;exitDy=0;entryX=0.5;entryY=0;entryDx=0;entryDy=0;" edge="1" parent="1mb4ksOBA-sOIOvfXFad-37" source="1mb4ksOBA-sOIOvfXFad-47" target="1mb4ksOBA-sOIOvfXFad-53">
          <mxGeometry relative="1" as="geometry" />
        </mxCell>
        <mxCell id="1mb4ksOBA-sOIOvfXFad-47" value="manipulate steering" style="rounded=1;whiteSpace=wrap;html=1;strokeColor=#000000;fillColor=default;" vertex="1" parent="1mb4ksOBA-sOIOvfXFad-37">
          <mxGeometry x="140" y="290" width="160" height="40" as="geometry" />
        </mxCell>
        <mxCell id="1mb4ksOBA-sOIOvfXFad-51" value="" style="ellipse;whiteSpace=wrap;html=1;aspect=fixed;fillColor=#FFFFFF;strokeColor=#000000;" vertex="1" parent="1mb4ksOBA-sOIOvfXFad-37">
          <mxGeometry x="210" y="410" width="20" height="20" as="geometry" />
        </mxCell>
        <mxCell id="1mb4ksOBA-sOIOvfXFad-52" value="" style="ellipse;whiteSpace=wrap;html=1;aspect=fixed;fillColor=#000000;strokeColor=#000000;strokeWidth=1;" vertex="1" parent="1mb4ksOBA-sOIOvfXFad-37">
          <mxGeometry x="215" y="415" width="10" height="10" as="geometry" />
        </mxCell>
        <mxCell id="1mb4ksOBA-sOIOvfXFad-55" style="edgeStyle=orthogonalEdgeStyle;rounded=0;orthogonalLoop=1;jettySize=auto;html=1;exitX=0.5;exitY=1;exitDx=0;exitDy=0;entryX=0.5;entryY=0;entryDx=0;entryDy=0;" edge="1" parent="1mb4ksOBA-sOIOvfXFad-37" source="1mb4ksOBA-sOIOvfXFad-53" target="1mb4ksOBA-sOIOvfXFad-51">
          <mxGeometry relative="1" as="geometry" />
        </mxCell>
        <mxCell id="1mb4ksOBA-sOIOvfXFad-53" value="return DriveControllEvent" style="rounded=1;whiteSpace=wrap;html=1;strokeColor=#000000;fillColor=default;" vertex="1" parent="1mb4ksOBA-sOIOvfXFad-37">
          <mxGeometry x="160" y="350" width="120" height="40" as="geometry" />
        </mxCell>
        <mxCell id="1mb4ksOBA-sOIOvfXFad-89" value="CalcCurve(float value, float startingPoint, float curveBehavior)" style="swimlane;startSize=23;rounded=1;align=left;swimlaneLine=1;verticalAlign=middle;horizontal=1;labelPosition=center;verticalLabelPosition=middle;labelBorderColor=none;spacingLeft=8;" vertex="1" parent="1">
          <mxGeometry x="1620" y="80" width="440" height="480" as="geometry" />
        </mxCell>
        <mxCell id="1mb4ksOBA-sOIOvfXFad-113" style="edgeStyle=orthogonalEdgeStyle;rounded=0;orthogonalLoop=1;jettySize=auto;html=1;exitX=0.5;exitY=1;exitDx=0;exitDy=0;entryX=0.5;entryY=0;entryDx=0;entryDy=0;" edge="1" parent="1mb4ksOBA-sOIOvfXFad-89" source="1mb4ksOBA-sOIOvfXFad-90" target="1mb4ksOBA-sOIOvfXFad-91">
          <mxGeometry relative="1" as="geometry" />
        </mxCell>
        <mxCell id="1mb4ksOBA-sOIOvfXFad-90" value="" style="ellipse;whiteSpace=wrap;html=1;aspect=fixed;fillColor=#000000;strokeColor=#000000;" vertex="1" parent="1mb4ksOBA-sOIOvfXFad-89">
          <mxGeometry x="220" y="40" width="20" height="20" as="geometry" />
        </mxCell>
        <mxCell id="1mb4ksOBA-sOIOvfXFad-112" style="edgeStyle=orthogonalEdgeStyle;rounded=0;orthogonalLoop=1;jettySize=auto;html=1;exitX=0.5;exitY=1;exitDx=0;exitDy=0;entryX=0.5;entryY=0;entryDx=0;entryDy=0;" edge="1" parent="1mb4ksOBA-sOIOvfXFad-89" source="1mb4ksOBA-sOIOvfXFad-91" target="1mb4ksOBA-sOIOvfXFad-92">
          <mxGeometry relative="1" as="geometry" />
        </mxCell>
        <mxCell id="1mb4ksOBA-sOIOvfXFad-91" value="Clamp all inputs to 1" style="rounded=1;whiteSpace=wrap;html=1;strokeColor=#000000;fillColor=default;" vertex="1" parent="1mb4ksOBA-sOIOvfXFad-89">
          <mxGeometry x="160" y="80" width="140" height="40" as="geometry" />
        </mxCell>
        <mxCell id="1mb4ksOBA-sOIOvfXFad-97" style="edgeStyle=orthogonalEdgeStyle;rounded=0;orthogonalLoop=1;jettySize=auto;html=1;exitX=1;exitY=0.5;exitDx=0;exitDy=0;entryX=0.5;entryY=0;entryDx=0;entryDy=0;" edge="1" parent="1mb4ksOBA-sOIOvfXFad-89" source="1mb4ksOBA-sOIOvfXFad-92" target="1mb4ksOBA-sOIOvfXFad-96">
          <mxGeometry relative="1" as="geometry" />
        </mxCell>
        <mxCell id="1mb4ksOBA-sOIOvfXFad-100" style="edgeStyle=orthogonalEdgeStyle;rounded=0;orthogonalLoop=1;jettySize=auto;html=1;exitX=0;exitY=0.5;exitDx=0;exitDy=0;entryX=0.5;entryY=0;entryDx=0;entryDy=0;" edge="1" parent="1mb4ksOBA-sOIOvfXFad-89" source="1mb4ksOBA-sOIOvfXFad-92" target="1mb4ksOBA-sOIOvfXFad-99">
          <mxGeometry relative="1" as="geometry" />
        </mxCell>
        <mxCell id="1mb4ksOBA-sOIOvfXFad-92" value="" style="rhombus;whiteSpace=wrap;html=1;" vertex="1" parent="1mb4ksOBA-sOIOvfXFad-89">
          <mxGeometry x="210" y="150" width="40" height="40" as="geometry" />
        </mxCell>
        <mxCell id="1mb4ksOBA-sOIOvfXFad-93" value="startingPoint == 0" style="text;html=1;align=center;verticalAlign=middle;resizable=0;points=[];autosize=1;strokeColor=none;fillColor=none;" vertex="1" parent="1mb4ksOBA-sOIOvfXFad-89">
          <mxGeometry x="260" y="138" width="120" height="30" as="geometry" />
        </mxCell>
        <mxCell id="1mb4ksOBA-sOIOvfXFad-94" value="" style="ellipse;whiteSpace=wrap;html=1;aspect=fixed;fillColor=#FFFFFF;strokeColor=#000000;" vertex="1" parent="1mb4ksOBA-sOIOvfXFad-89">
          <mxGeometry x="230" y="440" width="20" height="20" as="geometry" />
        </mxCell>
        <mxCell id="1mb4ksOBA-sOIOvfXFad-95" value="" style="ellipse;whiteSpace=wrap;html=1;aspect=fixed;fillColor=#000000;strokeColor=#000000;strokeWidth=1;" vertex="1" parent="1mb4ksOBA-sOIOvfXFad-89">
          <mxGeometry x="235" y="445" width="10" height="10" as="geometry" />
        </mxCell>
        <mxCell id="1mb4ksOBA-sOIOvfXFad-98" style="edgeStyle=orthogonalEdgeStyle;rounded=0;orthogonalLoop=1;jettySize=auto;html=1;exitX=0.5;exitY=1;exitDx=0;exitDy=0;entryX=0.5;entryY=0;entryDx=0;entryDy=0;" edge="1" parent="1mb4ksOBA-sOIOvfXFad-89" source="1mb4ksOBA-sOIOvfXFad-96" target="1mb4ksOBA-sOIOvfXFad-94">
          <mxGeometry relative="1" as="geometry">
            <Array as="points">
              <mxPoint x="360" y="420" />
              <mxPoint x="240" y="420" />
            </Array>
          </mxGeometry>
        </mxCell>
        <mxCell id="1mb4ksOBA-sOIOvfXFad-96" value="return 0" style="rounded=1;whiteSpace=wrap;html=1;strokeColor=#000000;fillColor=default;" vertex="1" parent="1mb4ksOBA-sOIOvfXFad-89">
          <mxGeometry x="300" y="190" width="120" height="40" as="geometry" />
        </mxCell>
        <mxCell id="1mb4ksOBA-sOIOvfXFad-103" style="edgeStyle=orthogonalEdgeStyle;rounded=0;orthogonalLoop=1;jettySize=auto;html=1;exitX=0;exitY=0.5;exitDx=0;exitDy=0;entryX=0.5;entryY=0;entryDx=0;entryDy=0;" edge="1" parent="1mb4ksOBA-sOIOvfXFad-89" source="1mb4ksOBA-sOIOvfXFad-99" target="1mb4ksOBA-sOIOvfXFad-102">
          <mxGeometry relative="1" as="geometry" />
        </mxCell>
        <mxCell id="1mb4ksOBA-sOIOvfXFad-109" style="edgeStyle=orthogonalEdgeStyle;rounded=0;orthogonalLoop=1;jettySize=auto;html=1;exitX=1;exitY=0.5;exitDx=0;exitDy=0;entryX=0.5;entryY=0;entryDx=0;entryDy=0;" edge="1" parent="1mb4ksOBA-sOIOvfXFad-89" source="1mb4ksOBA-sOIOvfXFad-99" target="1mb4ksOBA-sOIOvfXFad-104">
          <mxGeometry relative="1" as="geometry" />
        </mxCell>
        <mxCell id="1mb4ksOBA-sOIOvfXFad-99" value="" style="rhombus;whiteSpace=wrap;html=1;" vertex="1" parent="1mb4ksOBA-sOIOvfXFad-89">
          <mxGeometry x="140" y="200" width="40" height="40" as="geometry" />
        </mxCell>
        <mxCell id="1mb4ksOBA-sOIOvfXFad-101" value="curveBehavior &amp;gt; 0.5" style="text;html=1;align=center;verticalAlign=middle;resizable=0;points=[];autosize=1;strokeColor=none;fillColor=none;" vertex="1" parent="1mb4ksOBA-sOIOvfXFad-89">
          <mxGeometry x="20" y="190" width="130" height="30" as="geometry" />
        </mxCell>
        <mxCell id="1mb4ksOBA-sOIOvfXFad-108" style="edgeStyle=orthogonalEdgeStyle;rounded=0;orthogonalLoop=1;jettySize=auto;html=1;exitX=0.5;exitY=1;exitDx=0;exitDy=0;entryX=0.5;entryY=0;entryDx=0;entryDy=0;" edge="1" parent="1mb4ksOBA-sOIOvfXFad-89" source="1mb4ksOBA-sOIOvfXFad-102" target="1mb4ksOBA-sOIOvfXFad-105">
          <mxGeometry relative="1" as="geometry" />
        </mxCell>
        <mxCell id="1mb4ksOBA-sOIOvfXFad-102" value="map curveBehavoir&lt;br&gt;0 to 2" style="rounded=1;whiteSpace=wrap;html=1;strokeColor=#000000;fillColor=default;" vertex="1" parent="1mb4ksOBA-sOIOvfXFad-89">
          <mxGeometry x="10" y="250" width="130" height="40" as="geometry" />
        </mxCell>
        <mxCell id="1mb4ksOBA-sOIOvfXFad-106" style="edgeStyle=orthogonalEdgeStyle;rounded=0;orthogonalLoop=1;jettySize=auto;html=1;exitX=0.5;exitY=1;exitDx=0;exitDy=0;entryX=0.5;entryY=0;entryDx=0;entryDy=0;" edge="1" parent="1mb4ksOBA-sOIOvfXFad-89" source="1mb4ksOBA-sOIOvfXFad-104" target="1mb4ksOBA-sOIOvfXFad-105">
          <mxGeometry relative="1" as="geometry" />
        </mxCell>
        <mxCell id="1mb4ksOBA-sOIOvfXFad-104" value="map curveBehavoir&lt;br&gt;&amp;nbsp;-10 to 0" style="rounded=1;whiteSpace=wrap;html=1;strokeColor=#000000;fillColor=default;" vertex="1" parent="1mb4ksOBA-sOIOvfXFad-89">
          <mxGeometry x="180" y="250" width="130" height="40" as="geometry" />
        </mxCell>
        <mxCell id="1mb4ksOBA-sOIOvfXFad-111" style="edgeStyle=orthogonalEdgeStyle;rounded=0;orthogonalLoop=1;jettySize=auto;html=1;exitX=0.5;exitY=1;exitDx=0;exitDy=0;entryX=0.5;entryY=0;entryDx=0;entryDy=0;" edge="1" parent="1mb4ksOBA-sOIOvfXFad-89" source="1mb4ksOBA-sOIOvfXFad-105" target="1mb4ksOBA-sOIOvfXFad-94">
          <mxGeometry relative="1" as="geometry" />
        </mxCell>
        <mxCell id="1mb4ksOBA-sOIOvfXFad-105" value="&lt;p&gt;return&amp;nbsp;Clamp&lt;font style=&quot;font-size: 12px;&quot;&gt;&lt;span style=&quot;margin: 0px; padding: 0px; border: 0px; vertical-align: baseline; outline: 0px; text-align: left;&quot;&gt;(startingPoint&lt;/span&gt;&lt;span style=&quot;margin: 0px; padding: 0px; border: 0px; vertical-align: baseline; outline: 0px; text-align: left;&quot;&gt;(e&lt;/span&gt;&lt;sup&gt;&lt;span style=&quot;margin: 0px; padding: 0px; border: 0px; outline: 0px; text-align: left;&quot;&gt;value ∗curveBehavior&amp;nbsp;&lt;/span&gt;&lt;/sup&gt;&lt;span style=&quot;margin: 0px; padding: 0px; border: 0px; vertical-align: baseline; outline: 0px; text-align: left;&quot;&gt;−value&lt;/span&gt;&lt;span style=&quot;margin: 0px; padding: 0px; border: 0px; vertical-align: baseline; outline: 0px; text-align: left;&quot;&gt;)&lt;/span&gt;&lt;span style=&quot;margin: 0px; padding: 0px; border: 0px; vertical-align: baseline; outline: 0px; text-align: left;&quot;&gt;)&lt;/span&gt;&lt;/font&gt;&lt;/p&gt;" style="rounded=1;whiteSpace=wrap;html=1;strokeColor=#000000;fillColor=default;" vertex="1" parent="1mb4ksOBA-sOIOvfXFad-89">
          <mxGeometry x="10" y="360" width="300" height="40" as="geometry" />
        </mxCell>
        <mxCell id="1mb4ksOBA-sOIOvfXFad-110" value="curveBehavior &amp;lt; 0.5" style="text;html=1;align=center;verticalAlign=middle;resizable=0;points=[];autosize=1;strokeColor=none;fillColor=none;" vertex="1" parent="1mb4ksOBA-sOIOvfXFad-89">
          <mxGeometry x="165" y="190" width="130" height="30" as="geometry" />
        </mxCell>
        <mxCell id="whTC-xAVzlX5_9_mOydk-1" value="OnAwake()" style="swimlane;startSize=23;rounded=1;align=left;swimlaneLine=1;verticalAlign=middle;horizontal=1;labelPosition=center;verticalLabelPosition=middle;labelBorderColor=none;spacingLeft=8;" vertex="1" parent="1">
          <mxGeometry x="-60" y="80" width="200" height="190" as="geometry" />
        </mxCell>
        <mxCell id="whTC-xAVzlX5_9_mOydk-2" style="edgeStyle=orthogonalEdgeStyle;rounded=0;orthogonalLoop=1;jettySize=auto;html=1;exitX=0.5;exitY=1;exitDx=0;exitDy=0;entryX=0.5;entryY=0;entryDx=0;entryDy=0;" edge="1" parent="whTC-xAVzlX5_9_mOydk-1" source="whTC-xAVzlX5_9_mOydk-3" target="whTC-xAVzlX5_9_mOydk-5">
          <mxGeometry relative="1" as="geometry" />
        </mxCell>
        <mxCell id="whTC-xAVzlX5_9_mOydk-3" value="" style="ellipse;whiteSpace=wrap;html=1;aspect=fixed;fillColor=#000000;strokeColor=#000000;" vertex="1" parent="whTC-xAVzlX5_9_mOydk-1">
          <mxGeometry x="90" y="40" width="20" height="20" as="geometry" />
        </mxCell>
        <mxCell id="whTC-xAVzlX5_9_mOydk-4" style="edgeStyle=orthogonalEdgeStyle;rounded=0;orthogonalLoop=1;jettySize=auto;html=1;exitX=0.5;exitY=1;exitDx=0;exitDy=0;entryX=0.5;entryY=0;entryDx=0;entryDy=0;" edge="1" parent="whTC-xAVzlX5_9_mOydk-1" source="whTC-xAVzlX5_9_mOydk-5" target="whTC-xAVzlX5_9_mOydk-6">
          <mxGeometry relative="1" as="geometry" />
        </mxCell>
        <mxCell id="whTC-xAVzlX5_9_mOydk-5" value="Get Configuration" style="rounded=1;whiteSpace=wrap;html=1;strokeColor=#000000;fillColor=default;" vertex="1" parent="whTC-xAVzlX5_9_mOydk-1">
          <mxGeometry x="40" y="80" width="120" height="40" as="geometry" />
        </mxCell>
        <mxCell id="whTC-xAVzlX5_9_mOydk-6" value="" style="ellipse;whiteSpace=wrap;html=1;aspect=fixed;fillColor=#FFFFFF;strokeColor=#000000;" vertex="1" parent="whTC-xAVzlX5_9_mOydk-1">
          <mxGeometry x="90" y="150" width="20" height="20" as="geometry" />
        </mxCell>
        <mxCell id="whTC-xAVzlX5_9_mOydk-7" value="" style="ellipse;whiteSpace=wrap;html=1;aspect=fixed;fillColor=#000000;strokeColor=#000000;strokeWidth=1;" vertex="1" parent="whTC-xAVzlX5_9_mOydk-1">
          <mxGeometry x="95" y="155" width="10" height="10" as="geometry" />
        </mxCell>
      </root>
    </mxGraphModel>
  </diagram>
</mxfile>
